<?xml version="1.0" encoding="UTF-8" standalone="no"?>
<svg
   version="1.1"
   width="250"
   height="100"
   viewBox="0 0 250 100"
   xml:space="preserve"
   id="svg16"
   sodipodi:docname="flowED.svg"
   inkscape:version="1.3.2 (091e20e, 2023-11-25, custom)"
   xmlns:inkscape="http://www.inkscape.org/namespaces/inkscape"
   xmlns:sodipodi="http://sodipodi.sourceforge.net/DTD/sodipodi-0.dtd"
   xmlns="http://www.w3.org/2000/svg"
   xmlns:svg="http://www.w3.org/2000/svg"><sodipodi:namedview
   id="namedview16"
   pagecolor="#ffffff"
   bordercolor="#000000"
   borderopacity="0.25"
   inkscape:showpageshadow="2"
   inkscape:pageopacity="0.0"
   inkscape:pagecheckerboard="0"
   inkscape:deskcolor="#d1d1d1"
   inkscape:zoom="1.554"
   inkscape:cx="250"
   inkscape:cy="44.079794"
   inkscape:window-width="1920"
   inkscape:window-height="991"
   inkscape:window-x="2391"
   inkscape:window-y="1341"
   inkscape:window-maximized="1"
   inkscape:current-layer="svg16" />
<desc
   id="desc1">Created with Fabric.js 3.6.3</desc>
<defs
   id="defs1">
</defs>

<g
   id="g18"
   transform="translate(-4.9200261e-7,1.4552849)"><g
     id="g17"
     transform="matrix(1.0974587,0,0,1.0974587,-0.52978017,-6.3282194)"><g
       transform="matrix(0.73059661,0,0,0.73059661,42.841324,49.514494)"
       id="g11">
<g
   id="g10">
		<g
   transform="matrix(1.3333333,0,0,1.3333333,0.66666667,0.66653333)"
   id="g1">
<path
   style="opacity:1;fill:#687d77;fill-rule:nonzero;stroke:none;stroke-width:1;stroke-linecap:butt;stroke-linejoin:miter;stroke-miterlimit:4;stroke-dasharray:none;stroke-dashoffset:0"
   transform="translate(-50,-49.9999)"
   d="m 50,42.953 c -3.8867,0 -7.0469,3.1602 -7.0469,7.0469 0,3.8867 3.1602,7.0469 7.0469,7.0469 3.8867,0 7.0469,-3.1602 7.0469,-7.0469 0,-3.8867 -3.1602,-7.0469 -7.0469,-7.0469 z m 0,11.75 c -2.5938,0 -4.7031,-2.1094 -4.7031,-4.7031 0,-2.5937 2.1094,-4.7031 4.7031,-4.7031 2.5937,0 4.7031,2.1094 4.7031,4.7031 0,2.5937 -2.1094,4.7031 -4.7031,4.7031 z"
   stroke-linecap="round"
   id="path1" />
</g>
		<g
   transform="matrix(1.3333333,0,0,1.3333333,0.66666667,-41.801467)"
   id="g2">
<path
   style="opacity:1;fill:#687d77;fill-rule:nonzero;stroke:none;stroke-width:1;stroke-linecap:butt;stroke-linejoin:miter;stroke-miterlimit:4;stroke-dasharray:none;stroke-dashoffset:0"
   transform="translate(-50,-18.1489)"
   d="m 50,11.102 c -3.8867,0 -7.0469,3.1602 -7.0469,7.0469 0,3.8867 3.1602,7.0469 7.0469,7.0469 3.8867,0 7.0469,-3.1602 7.0469,-7.0469 0,-3.8828 -3.1602,-7.0469 -7.0469,-7.0469 z m 0,11.75 c -2.5938,0 -4.7031,-2.1094 -4.7031,-4.7031 0,-2.5937 2.1094,-4.7031 4.7031,-4.7031 2.5937,0 4.7031,2.1094 4.7031,4.7031 0,2.5937 -2.1094,4.7031 -4.7031,4.7031 z"
   stroke-linecap="round"
   id="path2" />
</g>
		<g
   transform="matrix(1.3333333,0,0,1.3333333,-41.802533,0.66666667)"
   id="g3">
<path
   style="opacity:1;fill:#687d77;fill-rule:nonzero;stroke:none;stroke-width:1;stroke-linecap:butt;stroke-linejoin:miter;stroke-miterlimit:4;stroke-dasharray:none;stroke-dashoffset:0"
   transform="translate(-18.1481,-50)"
   d="m 25.195,50 c 0,-3.8867 -3.1602,-7.0469 -7.0469,-7.0469 -3.8867,0 -7.0469,3.1602 -7.0469,7.0469 0,3.8867 3.1602,7.0469 7.0469,7.0469 3.8867,0 7.0469,-3.1602 7.0469,-7.0469 z m -11.75,0 c 0,-2.5938 2.1094,-4.7031 4.7031,-4.7031 2.5937,0 4.7031,2.1094 4.7031,4.7031 0,2.5937 -2.1094,4.7031 -4.7031,4.7031 -2.5898,0 -4.7031,-2.1094 -4.7031,-4.7031 z"
   stroke-linecap="round"
   id="path3" />
</g>
		<g
   transform="matrix(1.3333333,0,0,1.3333333,43.130669,0.66653333)"
   id="g4">
<path
   style="opacity:1;fill:#687d77;fill-rule:nonzero;stroke:none;stroke-width:1;stroke-linecap:butt;stroke-linejoin:miter;stroke-miterlimit:4;stroke-dasharray:none;stroke-dashoffset:0"
   transform="translate(-81.848002,-49.9999)"
   d="m 81.848,42.953 c -3.8867,0 -7.0469,3.1602 -7.0469,7.0469 0,3.8867 3.1602,7.0469 7.0469,7.0469 3.8867,0 7.0469,-3.1602 7.0469,-7.0469 0.0039,-3.8867 -3.1602,-7.0469 -7.0469,-7.0469 z m 0,11.75 c -2.5938,0 -4.7031,-2.1094 -4.7031,-4.7031 0,-2.5937 2.1094,-4.7031 4.7031,-4.7031 2.5937,0 4.7031,2.1094 4.7031,4.7031 0.0039,2.5938 -2.1094,4.7031 -4.7031,4.7031 z"
   stroke-linecap="round"
   id="path4" />
</g>
		<g
   transform="matrix(1.3333333,0,0,1.3333333,0.66666667,43.130533)"
   id="g5">
<path
   style="opacity:1;fill:#687d77;fill-rule:nonzero;stroke:none;stroke-width:1;stroke-linecap:butt;stroke-linejoin:miter;stroke-miterlimit:4;stroke-dasharray:none;stroke-dashoffset:0"
   transform="translate(-50,-81.8479)"
   d="m 50,74.801 c -3.8867,0 -7.0469,3.1602 -7.0469,7.0469 0,3.8867 3.1602,7.0469 7.0469,7.0469 3.8867,0 7.0469,-3.1602 7.0469,-7.0469 0,-3.8828 -3.1602,-7.0469 -7.0469,-7.0469 z m 0,11.754 c -2.5938,0 -4.7031,-2.1094 -4.7031,-4.7031 0,-2.5937 2.1094,-4.7031 4.7031,-4.7031 2.5937,0 4.7031,2.1094 4.7031,4.7031 0,2.5898 -2.1094,4.7031 -4.7031,4.7031 z"
   stroke-linecap="round"
   id="path5" />
</g>
		<g
   transform="matrix(1.3333333,0,0,1.3333333,30.132338,-25.596311)"
   id="g6">
<path
   style="opacity:1;fill:#687d77;fill-rule:nonzero;stroke:none;stroke-width:1;stroke-linecap:butt;stroke-linejoin:miter;stroke-miterlimit:4;stroke-dasharray:none;stroke-dashoffset:0"
   transform="translate(-72.099253,-30.302767)"
   d="m 61.871,23.125 c 6.4062,2.8359 11.551,7.8242 14.586,14.113 l -8.1875,-0.73438 c -0.64453,-0.05078 -1.2148,0.41797 -1.2734,1.0625 -0.05859,0.64453 0.41797,1.2148 1.0625,1.2734 l 9.7891,0.87891 c 0.03516,0.0039 0.07031,0.0039 0.10547,0.0039 0.47266,0 0.90234,-0.28516 1.0859,-0.73047 l 3.8984,-9.5703 c 0.24609,-0.59766 -0.04297,-1.2852 -0.64453,-1.5273 -0.60156,-0.24609 -1.2852,0.04297 -1.5273,0.64453 l -2.7148,6.6641 c -3.3281,-6.3086 -8.6641,-11.316 -15.23,-14.219 -0.59375,-0.26172 -1.2852,0.0039 -1.5469,0.59766 -0.26172,0.58984 0.0039,1.2812 0.59766,1.543 z"
   stroke-linecap="round"
   id="path6" />
</g>
		<g
   transform="matrix(1.3333333,0,0,1.3333333,-28.799064,26.930043)"
   id="g7">
<path
   style="opacity:1;fill:#687d77;fill-rule:nonzero;stroke:none;stroke-width:1;stroke-linecap:butt;stroke-linejoin:miter;stroke-miterlimit:4;stroke-dasharray:none;stroke-dashoffset:0"
   transform="translate(-27.900702,-69.697532)"
   d="M 38.129,76.875 C 31.7228,74.0391 26.578,69.0508 23.543,62.762 l 8.1875,0.73438 c 0.64453,0.05469 1.2148,-0.41797 1.2734,-1.0625 0.05859,-0.64453 -0.41797,-1.2148 -1.0625,-1.2734 l -9.7891,-0.87891 c -0.51562,-0.04297 -0.99609,0.25 -1.1914,0.72656 l -3.8984,9.5703 c -0.24609,0.59766 0.04297,1.2852 0.64453,1.5273 0.14453,0.05859 0.29297,0.08594 0.44141,0.08594 0.46094,0 0.90234,-0.27734 1.0859,-0.73047 l 2.7148,-6.6641 c 3.3281,6.3086 8.6641,11.316 15.23,14.219 0.15234,0.06641 0.31641,0.10156 0.47266,0.10156 0.44922,0 0.87891,-0.26172 1.0742,-0.69922 0.26172,-0.58984 -0.0039,-1.2812 -0.59766,-1.543 z"
   stroke-linecap="round"
   id="path7" />
</g>
		<g
   transform="matrix(1.3333333,0,0,1.3333333,-25.596237,-28.793004)"
   id="g8">
<path
   style="opacity:1;fill:#687d77;fill-rule:nonzero;stroke:none;stroke-width:1;stroke-linecap:butt;stroke-linejoin:miter;stroke-miterlimit:4;stroke-dasharray:none;stroke-dashoffset:0"
   transform="translate(-30.302822,-27.905247)"
   d="m 38.992,20.965 -9.5703,-3.8984 c -0.60156,-0.24609 -1.2852,0.04297 -1.5273,0.64453 -0.24609,0.59766 0.04297,1.2852 0.64453,1.5273 l 6.6641,2.7148 c -6.3086,3.3281 -11.316,8.6641 -14.219,15.23 -0.26172,0.59375 0.0039,1.2852 0.59766,1.5469 0.15234,0.06641 0.31641,0.10156 0.47266,0.10156 0.44922,0 0.87891,-0.26172 1.0742,-0.69922 2.8359,-6.4062 7.8242,-11.551 14.113,-14.586 l -0.73438,8.1875 c -0.05859,0.64453 0.41797,1.2148 1.0625,1.2734 0.03516,0.0039 0.07031,0.0039 0.10547,0.0039 0.60156,0 1.1094,-0.45703 1.1641,-1.0664 l 0.87891,-9.7891 c 0.04297,-0.51562 -0.25,-1 -0.72656,-1.1914 z"
   stroke-linecap="round"
   id="path8" />
</g>
		<g
   transform="matrix(1.3333333,0,0,1.3333333,26.925377,30.130266)"
   id="g9">
<path
   style="opacity:1;fill:#687d77;fill-rule:nonzero;stroke:none;stroke-width:1;stroke-linecap:butt;stroke-linejoin:miter;stroke-miterlimit:4;stroke-dasharray:none;stroke-dashoffset:0"
   transform="translate(-69.694033,-72.0977)"
   d="m 78.418,61.273 c -0.59375,-0.26172 -1.2852,0.0039 -1.5469,0.59766 -2.8359,6.4062 -7.8242,11.551 -14.113,14.586 l 0.73438,-8.1875 c 0.05859,-0.64453 -0.41797,-1.2148 -1.0625,-1.2734 -0.64453,-0.05469 -1.2148,0.41797 -1.2734,1.0625 l -0.87891,9.7891 c -0.04687,0.51172 0.25,0.99609 0.72656,1.1914 l 9.5703,3.8984 c 0.14453,0.05859 0.29297,0.08594 0.44141,0.08594 0.46094,0 0.90234,-0.27734 1.0859,-0.73047 0.24609,-0.59766 -0.04297,-1.2852 -0.64453,-1.5273 l -6.6641,-2.7148 c 6.3086,-3.3281 11.316,-8.6641 14.219,-15.23 0.26562,-0.59375 0,-1.2852 -0.59375,-1.5469 z"
   stroke-linecap="round"
   id="path9" />
</g>
</g>
</g><g
       transform="matrix(0.73335091,0,0,0.73335091,158.67631,51.873711)"
       id="g16"><path
         fill="#687d77"
         opacity="1"
         d="m -89.5,-0.06 v 22.47 h -6.42 v -49.94 h 24.25 v 4.99 H -89.5 v 17.48 h 14.98 v 5 z"
         id="path11" /><path
         fill="#687d77"
         opacity="1"
         d="m -65.24,22.41 v -49.94 h 6.42 v 49.94 z"
         id="path12" /><path
         fill="#687d77"
         opacity="1"
         d="m -30.64,4.58 v 0 q 0,-4.28 -0.57,-7.1 -0.57,-2.82 -1.5,-4.5 -0.93,-1.67 -2.14,-2.35 -1.21,-0.68 -2.57,-0.68 v 0 q -1.35,0 -2.57,0.68 -1.21,0.68 -2.14,2.35 -0.92,1.68 -1.49,4.5 -0.58,2.82 -0.58,7.1 v 0 q 0,4.28 0.58,7.1 0.57,2.81 1.49,4.49 0.93,1.68 2.14,2.36 1.22,0.67 2.57,0.67 v 0 q 1.36,0 2.57,-0.67 1.21,-0.68 2.14,-2.36 0.93,-1.68 1.5,-4.49 0.57,-2.82 0.57,-7.1 z m 6.42,0 v 0 q 0,5.2 -0.85,8.77 -0.86,3.57 -2.54,5.75 -1.67,2.17 -4.13,3.1 -2.47,0.93 -5.68,0.93 v 0 q -3.21,0 -5.67,-0.93 -2.46,-0.93 -4.14,-3.1 -1.67,-2.18 -2.53,-5.75 -0.86,-3.57 -0.86,-8.77 v 0 q 0,-5.21 0.86,-8.78 0.86,-3.57 2.53,-5.74 1.68,-2.18 4.14,-3.11 2.46,-0.92 5.67,-0.92 v 0 q 3.21,0 5.68,0.92 2.46,0.93 4.13,3.11 1.68,2.17 2.54,5.74 0.85,3.57 0.85,8.78 z"
         id="path13" /><path
         fill="#687d77"
         opacity="1"
         d="M 0.9,3.15 H 0.61 l -6.28,19.26 h -7.84 l -6.43,-35.67 h 6.07 l 4.92,27.11 h 0.36 L -2.1,-6.13 h 5.71 l 6.49,19.98 h 0.36 l 4.92,-27.11 h 6.07 L 15.03,22.41 H 7.18 Z"
         id="path14" /><path
         fill="#687d77"
         opacity="1"
         d="m 33.93,-1.13 v 18.55 h 17.84 v 4.99 H 27.51 v -49.94 h 24.26 v 4.99 H 33.93 v 16.41 h 15.7 v 5 z"
         id="path15" /><path
         fill="#687d77"
         opacity="1"
         d="m 88.16,-2.56 v 0 q 0,7.49 -1.07,12.45 -1.07,4.96 -3.21,7.89 -2.14,2.92 -5.35,4.13 -3.21,1.22 -7.5,1.22 v 0 q -3.21,0 -5.95,-0.32 -2.75,-0.32 -5.46,-1.11 v 0 -48.52 q 2.71,-0.78 5.46,-1.1 2.74,-0.32 5.95,-0.32 v 0 q 4.29,0 7.5,1.21 3.21,1.21 5.35,4.14 2.14,2.92 3.21,7.88 1.07,4.96 1.07,12.45 z m -6.42,0 v 0 q 0,-6.28 -0.79,-10.34 -0.78,-4.07 -2.17,-6.46 -1.39,-2.39 -3.36,-3.32 -1.96,-0.93 -4.39,-0.93 v 0 h -4.99 v 42.1 h 4.99 q 2.43,0 4.39,-0.93 1.97,-0.93 3.36,-3.32 1.39,-2.39 2.17,-6.45 0.79,-4.07 0.79,-10.35 z"
         id="path16" /></g></g></g></svg>
